<?xml version="1.0" encoding="utf-8"?>
<!-- Generator: Adobe Illustrator 26.3.1, SVG Export Plug-In . SVG Version: 6.00 Build 0)  -->
<svg version="1.1" id="Layer_5" xmlns="http://www.w3.org/2000/svg" xmlns:xlink="http://www.w3.org/1999/xlink" x="0px" y="0px"
	 viewBox="0 0 60 60" style="enable-background:new 0 0 60 60;" xml:space="preserve">
<style type="text/css">
	.st0{fill:#092E6E;}
	.st1{fill:#FFFFFF;}
</style>
<circle class="st0" cx="30" cy="30" r="30"/>
<path class="st1" d="M30.8,12.8L30.8,12.8c0.4,0.4,0.4,1.1,0,1.6l-9.8,9.8c-0.4,0.4-1.1,0.4-1.6,0l0,0c-0.4-0.4-0.4-1.1,0-1.6
	l9.8-9.8C29.6,12.3,30.3,12.3,30.8,12.8z"/>
<path class="st1" d="M29.2,12.8L29.2,12.8c0.4-0.4,1.1-0.4,1.6,0l9.8,9.8c0.4,0.4,0.4,1.1,0,1.6l0,0c-0.4,0.4-1.1,0.4-1.6,0
	l-9.8-9.7C28.8,14,28.8,13.2,29.2,12.8z"/>
<path class="st1" d="M33.1,43.5L33.1,43.5c-0.6,0-1.1-0.5-1.1-1.1V24.1c0-0.6,0.5-1.1,1.1-1.1l0,0c0.6,0,1.1,0.5,1.1,1.1v18.3
	C34.3,43,33.8,43.5,33.1,43.5z"/>
<path class="st1" d="M26.8,47.5L26.8,47.5c-0.6,0-1.1-0.5-1.1-1.1V28.1c0-0.6,0.5-1.1,1.1-1.1l0,0c0.6,0,1.1,0.5,1.1,1.1v18.3
	C27.9,47,27.4,47.5,26.8,47.5z"/>
</svg>
