<?xml version="1.0" encoding="utf-8"?>
<!-- Generator: Adobe Illustrator 25.0.1, SVG Export Plug-In . SVG Version: 6.00 Build 0)  -->
<svg version="1.1" id="Layer_1" xmlns="http://www.w3.org/2000/svg" xmlns:xlink="http://www.w3.org/1999/xlink" x="0px" y="0px"
	 viewBox="0 0 20 30" style="enable-background:new 0 0 20 30;" xml:space="preserve">
<style type="text/css">
	.st0{fill:#092E6E;}
	.st1{fill:#00A651;}
	.st2{fill:#BE1E2D;}
</style>
<g>
	<path class="st0" d="M2.89,11.31c-0.26,0-0.51-0.11-0.69-0.33c-0.31-0.38-0.25-0.94,0.13-1.25L9.5,3.89c0.33-0.27,0.8-0.27,1.13,0
		l7.05,5.85c0.38,0.31,0.43,0.87,0.12,1.25c-0.31,0.38-0.87,0.43-1.25,0.12l-6.48-5.38l-6.61,5.39C3.29,11.25,3.09,11.31,2.89,11.31
		z"/>
</g>
<g>
	<path class="st0" d="M9.93,26.31c-0.2,0-0.4-0.07-0.57-0.2l-7.05-5.85c-0.38-0.31-0.43-0.87-0.12-1.25
		c0.31-0.38,0.87-0.43,1.25-0.12l6.48,5.38l6.61-5.39c0.38-0.31,0.94-0.25,1.25,0.13c0.31,0.38,0.25,0.94-0.13,1.25l-7.18,5.85
		C10.33,26.25,10.13,26.31,9.93,26.31z"/>
</g>
<rect x="22.12" class="st1" width="45.25" height="15"/>
<rect x="21.3" y="15" class="st2" width="41.22" height="15"/>
</svg>
