<svg xmlns="http://www.w3.org/2000/svg" width="23.109" height="20.298" viewBox="0 0 23.109 20.298">
    <defs>
        <style>
            .cls-2{fill:#fff}
        </style>
    </defs>
    <g id="그룹_1118" transform="translate(-433.676 -502.556)">
        <path id="패스_1583" fill="#002c83" d="M456.569 520.59l-10.035-17.266a1.491 1.491 0 0 0-2.608 0l-10.035 17.266a1.49 1.49 0 0 0 1.3 2.264h20.07a1.49 1.49 0 0 0 1.3-2.264z"/>
        <g id="그룹_1117" transform="translate(443.778 507.882)">
            <path id="패스_1584" d="M929.7 772.828h1.115c.395-3.216.879-7.874.879-7.874a1.14 1.14 0 0 0-1.159-1.352h-.555a1.14 1.14 0 0 0-1.159 1.352s.479 4.658.879 7.874z" class="cls-2" transform="translate(-928.804 -763.602)"/>
            <path id="패스_1585" d="M945.056 1259.633a1.121 1.121 0 1 0 1.121-1.121 1.121 1.121 0 0 0-1.121 1.121z" class="cls-2" transform="translate(-944.724 -1248.415)"/>
        </g>
    </g>
</svg>
