<svg xmlns="http://www.w3.org/2000/svg" width="32.566" height="16.515" viewBox="0 0 32.566 16.515">
    <defs>
        <clipPath id="clip-path">
            <path id="사각형_514" d="M0 0H32.566V16.515H0z" class="cls-1"/>
        </clipPath>
        <style>
            .cls-1{fill:#002c83}
        </style>
    </defs>
    <g id="그룹_385">
        <g id="그룹_384" clip-path="url(#clip-path)">
            <path id="패스_513" d="M9.824.065c3.871-.6 7.493 3.2 9.822 1.438A1.12 1.12 0 0 1 21.4 2.628v.027a2.226 2.226 0 0 1-1.212 1.764 3.851 3.851 0 0 1-1.662.058 1.786 1.786 0 0 1-.816 1.367 1.664 1.664 0 0 1-2.212-.534 1.723 1.723 0 0 1-2.453.784 2.039 2.039 0 0 1-.218-.124 2.1 2.1 0 0 1-.446-.429c-.432-.508-.825-1-2.315.086a4.084 4.084 0 0 0-.608 5.394 5.228 5.228 0 0 0 4.16 1.971c3.55.158 6.589-2.173 9.957-2.955a14.656 14.656 0 0 1 3.311-.447 10.838 10.838 0 0 1 2.721.329 15.8 15.8 0 0 1 1.628.5 14.285 14.285 0 0 1 2.714 1.4 17.56 17.56 0 0 0-5.06-.695 10.028 10.028 0 0 0-4.489 1.049 14.063 14.063 0 0 0-2.427 1.451 15.093 15.093 0 0 1-8.32 2.892c-4.038 0-8-1.41-9.575-6.745C2.965 6 4.344.907 9.824.065" class="cls-1" transform="translate(-3.719)"/>
            <path id="패스_514" d="M20.319 9.2A2.467 2.467 0 0 0 20 11.045a3.282 3.282 0 0 0 2.577 2.569c2.535.487 4.711-.912 7.166-1.443a8.409 8.409 0 0 1 2.418-.2c-4.9 1.05-6.847 3.051-10.066 2.186a3.946 3.946 0 0 1-2.6-2.3 3.493 3.493 0 0 1 .236-3.124z" class="cls-1" transform="translate(-11.705 -2.481)"/>
            <path id="패스_515" d="M4.958 17.282a10.616 10.616 0 0 1 2.016-.442 16.49 16.49 0 0 1 4.443.175 7.336 7.336 0 0 1 3.9 1.885s-2.5-1.006-8.906-.614a17.745 17.745 0 0 0-6.409 2 9.532 9.532 0 0 1 2.66-2.053 13.442 13.442 0 0 1 2.3-.948" class="cls-1" transform="translate(17.252 -4.761)"/>
        </g>
    </g>
</svg>
